<?xml version="1.0" encoding="UTF-8"?>
<svg width="24pt" height="16.109pt" preserveAspectRatio="xMidYMid" version="1.0" viewBox="0 0 24 16.109" xmlns="http://www.w3.org/2000/svg">
 <g transform="matrix(.0077415 0 0 -.0077528 -7.8253 27.893)">
  <path d="m1200 3591c-99-31-159-96-180-196-7-33-10-142-8-280 3-243 2-238 58-251 141-31 231-150 232-304 1-79-22-138-77-199-36-39-145-101-179-101-33 0-38-36-34-298 3-247 4-259 27-305 29-60 97-112 164-127 32-7 487-10 1361-10 1457 0 1379-4 1456 66 21 19 49 56 62 82 22 44 23 60 26 287 2 146 0 250-6 266-9 21-19 28-54 33-97 15-187 78-230 161-26 49-34 149-19 212 27 110 122 199 244 229l68 17-3 261c-3 247-4 264-26 311-29 64-46 81-107 114l-50 26-610 6c-851 9-2085 9-2115 0zm798-33c18-18 15-103-4-122-38-39-84-4-84 64 0 52 13 70 50 70 14 0 31-5 38-12zm-4-230c24-35 22-142-4-168s-36-25-65 5c-21 20-25 34-25 82 0 67 19 103 55 103 13 0 31-10 39-22zm0-270c23-33 22-139-2-168-15-18-25-22-46-16-33 8-46 39-46 109 0 61 20 97 55 97 13 0 31-10 39-22zm0-270c23-33 22-139-2-168-15-18-25-22-46-16-33 8-46 39-46 109 0 61 20 97 55 97 13 0 31-10 39-22zm0-270c22-31 21-136 0-166-21-31-64-26-81 8-18 36-16 131 3 158 8 12 26 22 39 22s31-10 39-22zm0-270c22-31 21-136 0-166-21-31-64-26-82 8-20 38-11 149 13 166 27 20 52 17 69-8zm-4-268c26-26 28-133 4-168-21-30-59-29-80 3-23 36-16 152 11 171 26 19 41 18 65-6zm-2-272c18-18 15-98-5-120-37-41-83-8-83 62 0 52 13 70 50 70 14 0 31-5 38-12z"/>
 </g>
</svg>
