<?xml version="1.0" encoding="UTF-8"?>
<svg width="24pt" height="24pt" preserveAspectRatio="xMidYMid" version="1.0" viewBox="0 0 24 24" xmlns="http://www.w3.org/2000/svg">
 <g transform="matrix(.004878 0 0 -.0053115 -.4878 25.6)">
  <path d="m1636 4795c-180-96-627-362-653-390-37-39-57-103-47-148 4-18 36-129 72-247 65-213 65-216 66-335 0-101-3-129-22-176-33-84-91-173-152-235-85-86-170-122-455-190-230-55-241-59-281-96-57-53-64-85-64-302v-186l737 2 738 3 7 86c26 350 265 677 598 817 243 103 517 103 760 0 332-140 572-467 598-817l7-86 738-3 737-2v186c0 217-7 249-64 302-39 36-51 40-281 95-285 69-370 105-455 191-61 62-119 151-152 235-19 47-22 75-22 176 1 119 1 122 66 335 36 118 68 229 72 247 9 41-8 105-39 142-14 16-170 113-358 222-271 157-340 193-378 197-86 8-103-4-304-213-197-205-244-242-352-281-58-20-87-24-193-24s-135 4-193 24c-108 39-156 77-350 279-103 107-196 196-214 203-50 22-114 17-167-11z"/>
  <path d="m2428 2235c-104-33-204-110-253-193l-19-31-945-3c-711-2-953-6-973-15-15-7-45-29-68-49-107-97-81-272 51-338l53-26h1881l20-36c10-20 44-59 75-86 138-128 335-158 505-79 69 32 162 113 190 165l20 36h1881l51 25c123 62 156 219 68 322-71 84 9 78-1055 81l-945 3-32 48c-41 63-102 112-189 153-61 29-80 33-169 35-68 2-115-2-147-12z"/>
  <path d="m3760 1210c-123-22-240-97-300-189l-33-51h-3153l-53-26c-131-66-157-242-50-338 22-20 52-42 67-49 21-9 401-13 1609-15l1582-2 20-34c25-40 102-113 151-143 75-46 158-66 255-61 76 4 102 10 166 40 83 39 145 89 190 154l29 42 307 4c202 3 317 8 335 16 15 6 45 28 67 48 107 96 81 272-50 338l-53 26h-602l-43 61c-91 129-285 208-441 179z"/>
 </g>
</svg>
