<?xml version="1.0" encoding="UTF-8"?>
<svg width="23.904pt" height="23.889pt" preserveAspectRatio="xMidYMid" version="1.0" viewBox="0 0 23.904 23.889" xmlns="http://www.w3.org/2000/svg">
 <g transform="matrix(.0052226 0 0 -.0052226 -1.4173 25.325)">
  <path d="m1335 4835c-193-16-308-37-426-75-340-111-531-351-598-751-38-224-43-410-38-1569 4-1144 5-1171 48-1384 84-417 319-652 736-735 221-44 278-46 1513-46 1072 0 1188 2 1320 18 284 35 445 92 596 210 194 152 293 360 340 717 15 109 18 270 21 1220 3 760 1 1150-7 1275-24 381-82 583-220 767-123 163-333 278-590 324-221 39-396 44-1490 43-758-1-1097-5-1205-14zm865-1387c58-30 90-78 90-135 0-61-27-106-115-193l-76-75 685-5c675-5 685-5 713-26 98-73 98-195 0-268-28-21-31-21-937-21s-909 0-937 21c-68 50-93 137-59 202 21 38 486 499 516 511 40 16 73 13 120-11zm1297-1074c68-50 93-137 59-202-8-15-124-136-258-269-263-262-274-269-352-243-73 24-116 79-116 149 0 63 15 89 107 182l86 89-686 2c-678 3-686 3-714 24-89 66-99 179-21 251 12 12 34 26 48 32 16 6 340 9 922 8 893-2 897-2 925-23z"/>
 </g>
</svg>
