<svg xmlns="http://www.w3.org/2000/svg" viewBox="0 0 512 512"><polygon fill="#f04f75" points="308.97 456.449 308.97 372.94 299.936 361.461 308.97 344.14 308.97 305.72 300.1 295.343 308.97 276.92 238.82 253.92 238.82 327.33 247.598 338.078 238.82 356.13 238.82 394.55 248.427 409.012 238.82 423.35 238.82 433.05 308.97 456.449"/><path fill="#e3d2cf" d="M201.86,84.44H359.73a40.57153,40.57153,0,0,1,40.57,40.57V241.24L201.86,264.68Z"/><circle cx="358.82" cy="118.91" r="11.02" fill="#adadc0"/><path fill="#f04f75" d="M343.8 162.24c0-10.41-13.1-32.31-37.4-32.31-43.37 0-40.09 53.34237-40.09 54.53237l67.14019 21.71106zM403.17 38.05V53.07a7.51341 7.51341 0 01-7.51 7.51H358.82V30.55h36.84A7.51128 7.51128 0 01403.17 38.05z"/><path fill="#f3f3fd" d="M341.08265,192.29344a14.03665,14.03665,0,0,1-12.63137,20.146H267.85612a14.03065,14.03065,0,0,1,0-28.0613h60.59516a14.1462,14.1462,0,0,1,2.04493.148Z"/><circle cx="343.796" cy="177.268" r="15.026" fill="#f3f3fd"/><path fill="#e6e5fa" d="M379.48,471.21q0,4.92-.38,10.24H168.31c0-23.67,15.96-27.21,25.49-27.21a35.70661,35.70661,0,0,1,6.97.64c0-20.87,14.8-21.83,23.16-21.83h32.02c25.01,0,22.88-23.78,53.02-29.15a74.75318,74.75318,0,0,1,13.22-1.08C349.78,402.82,379.48,420.59,379.48,471.21Z"/><polygon fill="#faeddf" points="308.97 344.14 308.97 372.94 238.82 423.35 238.82 394.55 308.97 344.14"/><polygon fill="#faeddf" points="308.97 276.92 308.97 305.72 238.82 356.13 238.82 327.33 308.97 276.92"/><path fill="#faeddf" d="M147.13,80.21h36.4a41.523,41.523,0,0,1,18.32,4.23h.01a41.78665,41.78665,0,0,1,23.44,37.55V250.24H188.9Z"/><path fill="#ccb7be" d="M105.35,256.24V121.99a41.775,41.775,0,1,1,83.55,0V256.24Z"/><path fill="#8686a8" d="M176.51,241.24l13.63344,19.68179L176.51,276.92H105.35a10.00365,10.00365,0,0,1-10-10V251.24a10.00365,10.00365,0,0,1,10-10Z"/><path fill="#adadc0" d="M416.65,251.24v15.68a10.00365,10.00365,0,0,1-10,10H176.51V241.24H406.65A10.00365,10.00365,0,0,1,416.65,251.24Z"/><path fill="#b24f75" d="M327.9267,189.35322a5.1669,5.1669,0,0,1-4.477-5.21214c-.035-8.21852-1.87742-12.80691-3.65273-15.5481a5.02476,5.02476,0,0,1,8.48993-5.37714c2.51866,4.02379,5.16332,10.73261,5.16332,21.164A5.00084,5.00084,0,0,1,327.9267,189.35322Z"/><path fill="#adadc0" d="M358.82032,123.91016a4.99962,4.99962,0,0,1-5-5V30.5498a5,5,0,0,1,10,0v88.36036A4.99962,4.99962,0,0,1,358.82032,123.91016Z"/></svg>