<?xml version="1.0" standalone="no"?>
<!DOCTYPE svg PUBLIC "-//W3C//DTD SVG 20010904//EN"
 "http://www.w3.org/TR/2001/REC-SVG-20010904/DTD/svg10.dtd">
<svg version="1.0" xmlns="http://www.w3.org/2000/svg"
 width="512.000000pt" height="512.000000pt" viewBox="0 0 512.000000 512.000000"
 preserveAspectRatio="xMidYMid meet">

<g transform="translate(0.000000,512.000000) scale(0.100000,-0.100000)"
fill="#000000" stroke="none">
<path d="M420 2560 l0 -2310 1465 0 c806 0 1465 2 1465 5 0 3 -38 43 -84 88
-128 126 -211 266 -258 439 -20 70 -23 108 -23 243 0 137 3 171 23 238 32 110
67 191 120 272 100 155 205 252 359 332 112 58 175 80 276 97 l72 12 3 962 2
962 -454 0 -455 0 -28 24 -28 24 -3 461 -3 461 -1224 0 -1225 0 0 -2310z
m2909 603 c46 -38 42 -126 -8 -152 -14 -8 -374 -11 -1196 -11 l-1176 0 -24 25
c-35 34 -35 96 0 130 l24 25 1179 0 c1109 0 1181 -1 1201 -17z m-1134 -649
c32 -34 33 -91 4 -128 l-20 -26 -619 0 -619 0 -20 26 c-30 38 -28 98 4 129
l24 25 611 0 611 0 24 -26z m454 -630 c26 -21 31 -33 31 -69 0 -36 -5 -48 -31
-69 l-31 -26 -828 0 -828 0 -31 26 c-26 21 -31 33 -31 69 0 36 5 48 31 69 l31
26 828 0 828 0 31 -26z m-454 -649 c35 -34 34 -89 -2 -127 l-27 -28 -605 0
-605 0 -28 27 c-37 36 -39 93 -3 128 l24 25 611 0 611 0 24 -25z"/>
<path d="M3060 4405 l0 -325 327 0 328 0 -325 325 c-179 179 -326 325 -327
325 -2 0 -3 -146 -3 -325z"/>
<path d="M3825 1784 c-11 -2 -45 -9 -75 -15 -123 -25 -277 -115 -377 -223
-372 -397 -221 -1048 288 -1240 174 -65 385 -62 559 8 226 92 388 280 461 536
17 59 17 291 0 350 -81 283 -265 475 -536 560 -68 21 -267 36 -320 24z m542
-436 c28 -26 36 -60 22 -95 -13 -35 -524 -553 -563 -571 -52 -24 -76 -9 -219
143 -121 128 -137 149 -137 179 0 48 8 65 41 81 62 32 82 23 187 -86 l98 -101
223 228 c122 126 235 235 249 241 33 15 70 8 99 -19z"/>
</g>
</svg>
