<?xml version="1.0" standalone="no"?>
<!DOCTYPE svg PUBLIC "-//W3C//DTD SVG 20010904//EN"
 "http://www.w3.org/TR/2001/REC-SVG-20010904/DTD/svg10.dtd">
<svg version="1.0" xmlns="http://www.w3.org/2000/svg"
 width="512.000000pt" height="512.000000pt" viewBox="0 0 512.000000 512.000000"
 preserveAspectRatio="xMidYMid meet">

<g transform="translate(0.000000,512.000000) scale(0.100000,-0.100000)"
fill="#000000" stroke="none">
<path d="M230 2560 l0 -2270 1735 0 1735 0 0 408 0 407 -48 -79 -47 -80 -304
-128 c-168 -70 -307 -126 -309 -123 -3 2 -23 152 -45 333 l-41 328 397 687
397 687 0 1050 0 1050 -1735 0 -1735 0 0 -2270z m2880 835 l0 -95 -1145 0
-1145 0 0 95 0 95 1145 0 1145 0 0 -95z m0 -785 l0 -100 -1145 0 -1145 0 0
100 0 100 1145 0 1145 0 0 -100z m-640 -785 l0 -95 -825 0 -825 0 0 95 0 95
825 0 825 0 0 -95z m240 -1010 l0 -95 -430 0 -430 0 0 95 0 95 430 0 430 0 0
-95z"/>
<path d="M4482 3693 c-56 -95 -1346 -2333 -1361 -2361 -10 -19 -8 -55 9 -190
11 -91 22 -168 24 -169 2 -2 74 27 161 64 l158 68 704 1219 c387 671 702 1225
699 1230 -3 10 -337 206 -349 206 -3 0 -23 -30 -45 -67z"/>
</g>
</svg>
